HIERARCHY
ROOT hip
{
	OFFSET 0.000000 0.000000 0.000000 
	CHANNELS 6 Xposition Yposition Zposition Xrotation Zrotation Yrotation
	JOINT abdomen
	{
		OFFSET 0.000000 3.402643 0.000000 
		CHANNELS 3 Xrotation Zrotation Yrotation
		JOINT chest
		{
			OFFSET 0.000000 8.438565 -0.680529 
			CHANNELS 3 Xrotation Zrotation Yrotation
			JOINT neck
			{
				OFFSET 0.000000 10.207942 -0.272212 
				CHANNELS 3 Xrotation Zrotation Yrotation
				JOINT head
				{
					OFFSET 0.000000 3.130431 0.000000 
					CHANNELS 3 Xrotation Zrotation Yrotation
					End Site
					{
						OFFSET 0.000000 3.130435 0.000000 
					}
				}
			}
			JOINT lCollar
			{
				OFFSET 3.470700 6.669187 -0.816635 
				CHANNELS 3 Yrotation Zrotation Xrotation
				JOINT lShldr
				{
					OFFSET 3.198488 0.000000 0.000000 
					CHANNELS 3 Zrotation Yrotation Xrotation
					JOINT lForeArm
					{
						OFFSET 10.139888 0.000000 0.000000 
						CHANNELS 3 Yrotation Zrotation Xrotation
						JOINT lHand
						{
							OFFSET 8.370511 0.000000 0.000000 
							CHANNELS 3 Zrotation Yrotation Xrotation
							End Site
							{
								OFFSET 4.083176 0.000000 0.000000 
							}
						}
					}
				}
			}
			JOINT rCollar
			{
				OFFSET -3.470700 6.669187 -0.816635 
				CHANNELS 3 Yrotation Zrotation Xrotation
				JOINT rShldr
				{
					OFFSET -3.198488 0.000000 0.000000 
					CHANNELS 3 Zrotation Yrotation Xrotation
					JOINT rForeArm
					{
						OFFSET -10.139888 0.000000 0.000000 
						CHANNELS 3 Yrotation Zrotation Xrotation
						JOINT rHand
						{
							OFFSET -8.370511 0.000000 0.000000 
							CHANNELS 3 Zrotation Yrotation Xrotation
							End Site
							{
								OFFSET -4.083176 0.000000 0.000000 
							}
						}
					}
				}
			}
		}
	}
	JOINT lThigh
	{
		OFFSET 5.308129 -1.633274 1.361059 
		CHANNELS 3 Xrotation Zrotation Yrotation
		JOINT lShin
		{
			OFFSET -2.041588 -20.007561 0.000000 
			CHANNELS 3 Xrotation Zrotation Yrotation
			JOINT lFoot
			{
				OFFSET 0.000000 -19.190928 -1.224953 
				CHANNELS 3 Xrotation Yrotation Zrotation
				End Site
				{
					OFFSET 0.000000 -2.449906 4.627600 
				}
			}
		}
	}
	JOINT rThigh
	{
		OFFSET -5.308129 -1.633274 1.361059 
		CHANNELS 3 Xrotation Zrotation Yrotation
		JOINT rShin
		{
			OFFSET 2.041588 -20.007561 0.000000 
			CHANNELS 3 Xrotation Zrotation Yrotation
			JOINT rFoot
			{
				OFFSET 0.000000 -19.190928 -1.224953 
				CHANNELS 3 Xrotation Yrotation Zrotation
				End Site
				{
					OFFSET 0.000000 -2.449906 4.627600 
				}
			}
		}
	}
}
MOTION
Frames: 20
Frame Time: 0.033333
65.740135 52.679764 -62.932484 -6.201172 -6.836061 125.868484 17.024652 -12.131108 -4.426740 -12.919923 7.246094 0.683594 51.063168 8.107644 2.471410 -28.251955 11.835938 -25.869143 2.000000 -2.000000 0.000000 -91.425781 18.779297 -5.117187 -45.131142 -1.968531 -1.768887 0.065831 61.335667 -8.939948 -2.000000 2.000000 0.000000 63.222656 -23.730467 -32.402344 86.024178 -0.011895 -3.038620 70.961548 -45.740692 -57.058964 -4.547510 7.337006 7.599374 10.144229 -5.214402 -1.114143 -6.879744 -3.513457 0.557706 -5.210435 -5.324440 -13.939635 8.904346 5.125479 0.927033 -4.639226 0.136922 -1.023583 
65.755287 52.671879 -62.938263 -6.386719 -7.011719 125.907013 17.024652 -12.131108 -4.426740 -12.568359 7.226563 0.899666 51.063168 8.107644 2.471410 -28.642578 11.728516 -26.062468 2.000000 -2.000000 0.000000 -91.103516 18.466797 -4.606280 -45.125141 -1.790704 -1.906412 -0.395821 61.189766 -9.275043 -2.000000 2.000000 0.000000 63.525391 -23.222656 -33.505859 85.856789 0.131524 -2.981433 72.062553 -44.383327 -57.698555 -4.703268 7.336254 7.737284 10.134150 -5.214250 -1.084092 -6.895340 -3.454302 0.359125 -5.222920 -5.348617 -13.764412 8.904349 5.125473 0.927033 -4.649246 0.141348 -1.021724 
65.773460 52.679764 -62.941742 -6.386719 -7.011719 125.907013 17.040297 -12.200590 -4.630197 -12.568359 7.226563 1.075447 51.063168 8.107644 2.471410 -28.818361 11.748047 -26.093750 2.000000 -2.000000 0.000000 -90.869141 18.330078 -4.645367 -44.781086 -2.246061 -1.830885 0.002293 60.749794 -9.339729 -2.000000 2.000000 0.000000 63.642574 -22.773439 -34.404297 85.857056 0.151587 -2.990051 73.301567 -43.044178 -58.103191 -4.703268 7.336254 7.737284 10.123058 -5.213908 -1.092999 -6.856456 -3.442708 0.354831 -5.397443 -5.346595 -13.727920 8.903759 5.146714 0.918556 -4.795455 0.090859 -1.277134 
65.778664 52.687630 -62.942436 -6.386719 -7.011719 125.731232 17.040297 -12.200590 -4.630197 -12.568359 7.226563 1.075447 51.063168 8.107644 2.471410 -28.818361 11.748047 -26.269533 2.000000 -2.000000 0.000000 -90.917969 18.320313 -4.664899 -44.960987 -2.067217 -1.616432 0.089384 60.730171 -9.389989 -2.000000 2.000000 0.000000 63.906250 -22.656248 -34.726555 85.496841 0.007604 -3.037492 73.930565 -41.297852 -58.499538 -4.703262 7.336259 7.737284 10.134368 -5.214364 -1.074357 -6.775703 -3.337838 0.468823 -5.397438 -5.346601 -13.727919 8.903752 5.146720 0.918556 -4.623379 0.134261 -1.236827 
65.788734 52.679764 -62.936424 -6.386718 -7.167968 125.750732 17.040297 -12.200590 -4.630197 -12.744140 7.392579 1.114538 51.063168 8.107644 2.471410 -28.437502 11.845703 -26.259768 2.000000 -2.000000 0.000000 -90.966797 18.496092 -4.674636 -44.785187 -2.076965 -1.615862 0.089384 60.730171 -9.389989 -2.000000 2.000000 0.000000 64.472656 -22.666016 -34.755856 84.969490 0.027102 -3.036364 73.537590 -39.815784 -58.313927 -4.879760 7.317906 7.884785 9.957162 -5.215931 -1.069483 -6.897416 -3.413989 0.409413 -5.397445 -5.346595 -13.727920 8.903750 5.146730 0.918557 -4.644522 0.253479 -0.942101 
65.804016 52.679764 -62.940353 -6.562500 -7.167968 125.791023 16.865843 -12.216541 -4.617404 -12.744140 7.392579 0.938757 51.063168 8.107644 2.471410 -28.251955 11.835938 -26.220707 2.000000 -2.000000 0.000000 -91.191406 18.671875 -4.791796 -44.603252 -1.977140 -1.748826 0.221312 61.062084 -9.313371 -2.000000 2.000000 0.000000 64.843750 -22.666016 -34.746090 84.793709 0.027102 -3.036364 74.058449 -38.425987 -58.819328 -4.879757 7.317910 7.884784 9.957159 -5.215937 -1.069484 -6.722514 -3.492548 0.742646 -5.573207 -5.346746 -13.750475 8.904346 5.125479 0.927033 -4.803444 0.107230 -1.047291 
65.809448 52.679764 -62.929016 -6.562500 -7.363280 125.613983 16.865843 -12.216541 -4.617404 -12.919922 7.412109 0.733682 51.063168 8.107644 2.471410 -28.076176 11.787108 -26.181643 2.000000 -2.000000 0.000000 -91.396484 18.671877 -4.889450 -44.603252 -1.977140 -1.748826 0.151909 61.120731 -9.126925 -2.000000 2.000000 0.000000 65.322266 -23.134766 -34.580078 84.793709 0.027102 -3.036364 74.907562 -37.633141 -59.429249 -5.067747 7.332598 8.062839 9.967473 -5.216257 -1.089804 -6.913434 -3.456592 0.561203 -5.750681 -5.359324 -13.753922 8.904346 5.125479 0.927033 -4.633141 0.297672 -1.114178 
65.816856 52.679764 -62.928898 -6.562500 -7.363280 125.613983 16.865843 -12.216541 -4.617404 -13.085938 7.587891 0.587227 51.063168 8.107644 2.471410 -27.753908 11.562499 -26.191406 2.000000 -2.000000 0.000000 -91.455078 18.886719 -5.087891 -44.602882 -1.898009 -1.733897 -0.457251 61.111736 -9.801757 -2.000000 2.000000 0.000000 65.556641 -23.535158 -34.902340 84.793709 0.027102 -3.036364 75.735703 -36.956741 -60.150253 -5.007302 7.465800 8.104799 10.133046 -5.215878 -1.093956 -7.028444 -3.660420 0.444300 -5.750681 -5.359324 -13.753922 8.904346 5.125482 0.927033 -4.633141 0.297672 -1.114178 
65.821022 52.679764 -62.911186 -6.738281 -7.529296 125.478508 16.865843 -12.216541 -4.617404 -13.261719 7.597657 0.214844 51.063168 8.107644 2.471410 -27.578127 11.542970 -25.986330 2.000000 -2.000000 0.000000 -91.689453 19.023439 -5.406971 -44.608887 -2.075824 -1.596018 -0.162393 60.925766 -9.503148 -2.000000 2.000000 0.000000 65.771484 -23.964844 -34.863285 84.969490 0.027102 -3.036364 76.955978 -36.234863 -60.926128 -5.182608 7.474858 8.095439 10.133047 -5.215874 -1.093955 -7.207121 -3.690252 0.424719 -5.936138 -5.164017 -13.929695 8.904347 5.125475 0.927033 -4.592050 0.443307 -1.423312 
65.823219 52.679764 -62.886189 -6.738281 -7.529296 125.478508 16.865843 -12.216541 -4.617404 -13.251953 7.763673 0.263672 51.063168 8.107644 2.471410 -27.548832 11.708983 -25.917969 2.000000 -2.000000 0.000000 -91.748047 18.964844 -5.797607 -44.785187 -2.076965 -1.615862 -0.128465 60.749943 -9.483451 -2.000000 2.000000 0.000000 66.435547 -24.199219 -35.345795 84.964844 0.027258 -2.870127 77.708542 -35.857891 -61.474163 -5.191066 7.472388 8.271911 10.133681 -5.214083 -1.103566 -7.011290 -3.625708 0.449963 -6.109718 -5.160976 -13.922756 8.904350 5.125473 0.927033 -4.776718 0.669303 -1.528446 
65.812576 52.663994 -62.865723 -6.748047 -7.685547 125.320953 17.064390 -12.371466 -4.677797 -13.417970 7.949218 0.292969 51.063168 8.107644 2.471410 -27.548832 11.708983 -26.093748 2.000000 -2.000000 0.000000 -91.748047 18.964844 -5.602295 -44.785187 -2.076965 -1.615862 -0.338636 60.593975 -9.568671 -2.000000 2.000000 0.000000 66.425781 -24.550781 -35.423981 85.154205 0.191149 -2.997541 78.059792 -35.183327 -62.130707 -5.356995 7.462736 8.252350 10.117782 -5.201584 -1.111652 -7.031719 -3.559446 0.264778 -6.109727 -5.160965 -13.922756 8.904348 5.125475 0.927033 -4.604039 0.450255 -1.261288 
65.820557 52.648251 -62.864330 -6.923828 -7.685547 125.350258 17.078642 -12.538906 -4.732492 -13.398437 8.115235 0.343175 51.063168 8.107644 2.471410 -27.509769 11.865233 -26.035156 2.000000 -2.000000 0.000000 -91.748047 18.964844 -5.602295 -44.960987 -2.067217 -1.616432 -0.251008 60.662209 -9.081813 -2.000000 2.000000 0.000000 66.445320 -24.560547 -35.599762 85.321060 0.007604 -3.037492 77.870888 -34.898117 -61.850716 -5.356994 7.462737 8.252350 10.117781 -5.201587 -1.111652 -7.190793 -3.553079 0.305703 -6.295020 -5.180326 -13.750157 8.904342 5.125487 0.927034 -4.604136 0.438173 -1.245223 
65.828087 52.663994 -62.870350 -6.923828 -7.685547 125.350258 17.078642 -12.538906 -4.732492 -13.398437 8.115235 0.343175 51.063168 8.107644 2.471410 -27.675785 12.050779 -26.005857 2.000000 -2.000000 0.000000 -91.738281 18.974611 -5.397214 -45.127266 -2.067787 -1.626178 -0.251008 60.662209 -9.081813 -2.000000 2.000000 0.000000 66.523430 -24.609375 -35.781254 85.496841 0.007604 -3.037492 77.890373 -34.448898 -61.873104 -5.359664 7.467684 8.400114 10.123838 -5.214003 -1.063776 -7.036182 -3.575952 0.268164 -6.295021 -5.180326 -13.750157 8.904343 5.125484 0.927033 -4.604136 0.438173 -1.245223 
65.830505 52.656116 -62.877403 -6.923828 -7.685547 125.174469 17.101080 -12.459177 -4.890216 -13.398437 8.115235 0.343175 51.063168 8.107644 2.471410 -27.841797 12.089844 -26.025393 2.000000 -2.000000 0.000000 -91.689453 18.789063 -5.387479 -45.127266 -2.067787 -1.626178 -0.338636 60.593975 -9.568671 -2.000000 2.000000 0.000000 66.972656 -24.873045 -35.937496 85.841835 -0.113186 -2.809803 77.743027 -34.126984 -61.881344 -5.299666 7.620816 8.393219 9.957133 -5.215986 -1.069487 -7.035128 -3.608253 0.488855 -6.295023 -5.180323 -13.750159 8.904346 5.125482 0.927033 -4.416165 0.447288 -1.432074 
65.839882 52.663994 -62.882957 -6.923828 -7.529296 125.154968 17.101080 -12.459177 -4.890216 -13.398437 8.115235 0.518956 51.063168 8.107644 2.471410 -27.841797 12.089844 -25.849611 2.000000 -2.000000 0.000000 -91.367188 18.964844 -5.068359 -45.125141 -1.790704 -1.906412 -0.590117 60.799454 -9.672068 -2.000000 2.000000 0.000000 67.197266 -24.873047 -36.039268 86.017616 -0.113186 -2.809803 77.358421 -33.849934 -61.676716 -5.116496 7.596027 8.589334 9.956913 -5.215882 -1.079223 -7.142885 -3.719309 0.435260 -6.129085 -5.014433 -13.744395 8.904345 5.125483 0.927033 -4.613741 0.434107 -1.257560 
65.860489 52.663994 -62.898232 -6.923828 -7.529296 125.154968 17.437592 -12.281479 -4.860867 -13.583984 8.134767 0.488281 51.063168 8.107644 2.471410 -27.695314 11.894530 -26.074221 2.000000 -2.000000 0.000000 -91.318359 19.052736 -4.869857 -44.948841 -1.789566 -1.886922 -0.285489 60.730614 -9.783865 -2.000000 2.000000 0.000000 67.070313 -25.488281 -36.019825 86.384674 0.142402 -3.000360 76.375359 -33.410721 -61.278320 -5.046379 7.729223 8.778731 10.112361 -5.147152 -1.106998 -7.229008 -3.984782 0.461781 -6.138363 -4.838201 -13.731816 8.735783 5.143804 0.904600 -4.613723 0.423794 -1.251348 
65.869507 52.656116 -62.914898 -7.099609 -7.343750 125.175781 17.577316 -12.199451 -4.661057 -13.935547 8.144533 0.439453 51.063168 8.107644 2.471410 -27.695314 11.894530 -26.074221 2.000000 -2.000000 0.000000 -91.347656 19.238283 -4.879593 -44.948841 -1.789566 -1.886922 0.072398 60.837608 -9.760542 -2.000000 2.000000 0.000000 67.246094 -26.044922 -35.766006 86.727852 -0.040015 -3.059803 76.385208 -33.176350 -61.230534 -4.977612 7.952432 8.764499 10.309139 -5.216349 -1.079501 -7.686413 -3.918825 0.583459 -5.966343 -4.843154 -13.748278 8.724910 5.123562 0.902622 -4.601474 0.443612 -1.444410 
65.867432 52.656116 -62.922302 -7.089843 -7.167968 125.135498 17.752811 -12.196035 -4.670200 -14.287109 8.173829 0.214844 51.063168 8.107644 2.471410 -27.910158 11.757813 -26.162113 2.000000 -2.000000 0.000000 -91.728516 19.277344 -5.390625 -44.960987 -2.067217 -1.616432 0.220797 60.915596 -9.127829 -2.000000 2.000000 0.000000 67.617188 -26.396484 -36.005859 87.079689 -0.058950 -3.070676 76.447189 -33.248489 -61.600964 -4.971013 7.949575 8.930584 10.317058 -5.222413 -1.080766 -7.494155 -3.904760 0.553629 -5.789289 -4.675424 -13.741077 8.724911 5.123559 0.902622 -4.623638 0.416861 -1.233091 
65.867538 52.663994 -62.929592 -7.089843 -7.167968 125.135498 17.937315 -12.183503 -4.675915 -14.296875 7.998047 0.166016 51.063168 8.107644 2.471410 -28.037111 11.953124 -25.947266 2.000000 -2.000000 0.000000 -91.728516 19.248047 -5.400391 -44.960987 -2.067217 -1.616432 -0.162393 60.925766 -9.503148 -2.000000 2.000000 0.000000 67.919922 -26.699217 -36.230469 87.431252 -0.068699 -3.071240 77.288498 -33.757736 -62.259018 -4.971014 7.949575 8.930584 10.502267 -5.222529 -1.115830 -7.675690 -3.905375 0.547705 -5.807479 -4.663887 -13.564859 8.724908 5.123563 0.902623 -4.417628 0.521519 -1.368816 
65.869629 52.648251 -62.933182 -7.089843 -7.167968 125.135498 17.776901 -12.366908 -4.717801 -14.121095 7.978516 0.185547 51.063168 8.107644 2.471410 -28.222658 11.992188 -25.810547 2.000000 -2.000000 0.000000 -91.699219 19.052736 -5.592514 -44.960987 -2.067217 -1.616432 0.360738 61.120571 -8.846415 -2.000000 2.000000 0.000000 68.515625 -27.041016 -36.748051 87.967812 0.086162 -3.042726 77.745827 -33.980301 -62.693138 -4.971012 7.949575 8.930584 10.502267 -5.222529 -1.115830 -7.675691 -3.905376 0.547705 -5.985544 -4.676734 -13.579209 8.735827 5.124266 0.903467 -4.458110 0.489934 -1.180807 
